<svg width="700" height="600" viewBox="0 0 700 600" preserveAspectRatio="none" xmlns="http://www.w3.org/2000/svg" version="1.1" xmlns:xlink="http://www.w3.org/1999/xlink">
<defs>
	<circle id="empty" cx=".5" cy=".5" r=".4" style="fill:#FFFFFF;stroke:black;stroke-width:.05;"/>
	<circle id="yellow" cx=".5" cy=".5" r=".4" style="fill:#e7e700;stroke:black;stroke-width:.05;"/>
	<circle id="red" cx=".5" cy=".5" r=".4" style="fill:#FF0000;stroke:black;stroke-width:.05;"/>
	
</defs>
<g transform="scale(100,100) translate(-1,-1)">
<rect x="0" y="0" width="8" height="7" fill="#00BFFF"/>

	<use xlink:href="#empty" x="1" y="1"/>
	<use xlink:href="#empty" x="2" y="1"/>
    <use xlink:href="#empty" x="3" y="1"/>
	<use xlink:href="#empty" x="4" y="1"/>
    <use xlink:href="#empty" x="5" y="1"/>
	<use xlink:href="#empty" x="6" y="1"/>
	<use xlink:href="#empty" x="7" y="1"/>
	
    <use xlink:href="#empty" x="1" y="2"/>
	<use xlink:href="#empty" x="2" y="2"/>
	<use xlink:href="#empty" x="3" y="2"/>
	<use xlink:href="#empty" x="4" y="2"/>
	<use xlink:href="#empty" x="5" y="2"/>
	<use xlink:href="#empty" x="6" y="2"/>
	<use xlink:href="#empty" x="7" y="2"/>
	
	<use xlink:href="#empty" x="1" y="3"/>
	<use xlink:href="#empty" x="2" y="3"/>
	<use xlink:href="#empty" x="3" y="3"/>
	<use xlink:href="#empty" x="4" y="3"/>
	<use xlink:href="#empty" x="5" y="3"/>
	<use xlink:href="#empty" x="6" y="3"/>
	<use xlink:href="#empty" x="7" y="3"/>
	
	<use xlink:href="#empty" x="1" y="4"/>
	<use xlink:href="#empty" x="2" y="4"/>
	<use xlink:href="#empty" x="3" y="4"/>
	<use xlink:href="#empty" x="4" y="4"/>
	<use xlink:href="#empty" x="5" y="4"/>
	<use xlink:href="#empty" x="6" y="4"/>
	<use xlink:href="#empty" x="7" y="4"/>
	
	<use xlink:href="#empty" x="1" y="5"/>
	<use xlink:href="#empty" x="2" y="5"/>
	<use xlink:href="#empty" x="3" y="5"/>
	<use xlink:href="#empty" x="4" y="5"/>
	<use xlink:href="#empty" x="5" y="5"/>
	<use xlink:href="#empty" x="6" y="5"/>
	<use xlink:href="#empty" x="7" y="5"/>
	
	<use xlink:href="#empty" x="1" y="6"/>
	<use xlink:href="#empty" x="2" y="6"/>
    <use xlink:href="#empty" x="3" y="6"/>
	<use xlink:href="#empty" x="4" y="6"/>
	<use xlink:href="#empty" x="5" y="6"/>
	<use xlink:href="#empty" x="6" y="6"/>
    <use xlink:href="#empty" x="7" y="6"/>
	
</g>	

</svg>